<svg width="25" height="25" viewBox="0 0 25 25" fill="none" xmlns="http://www.w3.org/2000/svg">
<path d="M20.3887 11.6493L13.1133 18.9247C12.222 19.816 11.0131 20.3167 9.75264 20.3167C8.49216 20.3167 7.28331 19.816 6.39202 18.9247C5.50072 18.0334 5 16.8245 5 15.5641C5 14.3036 5.50072 13.0947 6.39202 12.2034L13.6674 4.92801C14.2616 4.33382 15.0675 4 15.9079 4C16.7482 4 17.5541 4.33382 18.1483 4.92801C18.7425 5.52221 19.0763 6.32811 19.0763 7.16843C19.0763 8.00875 18.7425 8.81465 18.1483 9.40884L10.8649 16.6843C10.7178 16.8314 10.5432 16.9481 10.351 17.0277C10.1588 17.1073 9.95277 17.1483 9.74472 17.1483C9.53668 17.1483 9.33068 17.1073 9.13847 17.0277C8.94627 16.9481 8.77162 16.8314 8.62452 16.6843C8.47741 16.5372 8.36072 16.3625 8.2811 16.1703C8.20149 15.9781 8.16051 15.7721 8.16051 15.5641C8.16051 15.356 8.20149 15.15 8.2811 14.9578C8.36072 14.7656 8.47741 14.591 8.62452 14.4438L15.3458 7.73051" stroke="#767676" stroke-width="1.5" stroke-linecap="round" stroke-linejoin="round"/>
</svg>
