<svg width="21" height="21" viewBox="0 0 21 21" fill="none" xmlns="http://www.w3.org/2000/svg">
<path d="M6.09783 6.09789C6.15879 6.03677 6.2312 5.98829 6.31093 5.9552C6.39066 5.92212 6.47613 5.90509 6.56245 5.90509C6.64877 5.90509 6.73424 5.92212 6.81397 5.9552C6.8937 5.98829 6.96612 6.03677 7.02708 6.09789L10.5 9.57208L13.9728 6.09789C14.0338 6.03687 14.1063 5.98847 14.186 5.95545C14.2657 5.92243 14.3512 5.90543 14.4375 5.90543C14.5237 5.90543 14.6092 5.92243 14.6889 5.95545C14.7686 5.98847 14.8411 6.03687 14.9021 6.09789C14.9631 6.1589 15.0115 6.23134 15.0445 6.31106C15.0775 6.39078 15.0945 6.47622 15.0945 6.56251C15.0945 6.6488 15.0775 6.73425 15.0445 6.81397C15.0115 6.89369 14.9631 6.96612 14.9021 7.02714L11.4279 10.5L14.9021 13.9729C14.9631 14.0339 15.0115 14.1063 15.0445 14.1861C15.0775 14.2658 15.0945 14.3512 15.0945 14.4375C15.0945 14.5238 15.0775 14.6092 15.0445 14.689C15.0115 14.7687 14.9631 14.8411 14.9021 14.9021C14.8411 14.9632 14.7686 15.0116 14.6889 15.0446C14.6092 15.0776 14.5237 15.0946 14.4375 15.0946C14.3512 15.0946 14.2657 15.0776 14.186 15.0446C14.1063 15.0116 14.0338 14.9632 13.9728 14.9021L10.5 11.428L7.02708 14.9021C6.96606 14.9632 6.89363 15.0116 6.81391 15.0446C6.73419 15.0776 6.64874 15.0946 6.56245 15.0946C6.47616 15.0946 6.39072 15.0776 6.311 15.0446C6.23128 15.0116 6.15884 14.9632 6.09783 14.9021C6.03681 14.8411 5.98841 14.7687 5.95539 14.689C5.92237 14.6092 5.90537 14.5238 5.90537 14.4375C5.90537 14.3512 5.92237 14.2658 5.95539 14.1861C5.98841 14.1063 6.03681 14.0339 6.09783 13.9729L9.57201 10.5L6.09783 7.02714C6.03671 6.96618 5.98823 6.89376 5.95514 6.81403C5.92206 6.7343 5.90503 6.64883 5.90503 6.56251C5.90503 6.47619 5.92206 6.39072 5.95514 6.31099C5.98823 6.23127 6.03671 6.15885 6.09783 6.09789Z" fill="#FEFEFE"/>
</svg>
