<svg width="19" height="19" viewBox="0 0 19 19" fill="none" xmlns="http://www.w3.org/2000/svg">
<g clip-path="url(#clip0_242_612)">
<path d="M14.3803 11.9014L14.2909 11.992L14.3116 12.1177L15.293 18.0514C15.2981 18.0903 15.3017 18.1552 15.3017 18.2519C15.3017 18.3769 15.2722 18.4651 15.2266 18.5306C15.1981 18.5716 15.1625 18.5956 15.0835 18.5956C14.995 18.5956 14.8866 18.5667 14.7545 18.4882L14.7546 18.4881L14.7467 18.4838L9.61991 15.6813L9.5 15.6157L9.38009 15.6813L4.25328 18.4838L4.25327 18.4837L4.24985 18.4857C4.10555 18.5675 3.99622 18.5956 3.91647 18.5956C3.82489 18.5956 3.78792 18.5679 3.76196 18.5306C3.71638 18.4651 3.6869 18.3769 3.6869 18.2519C3.6869 18.2234 3.69212 18.1602 3.70695 18.0518L4.68836 12.1177L4.70917 11.9918L4.61948 11.9011L0.467968 7.70214C0.294945 7.50653 0.25 7.37641 0.25 7.30312C0.25 7.22604 0.274063 7.17811 0.32224 7.13696C0.380237 7.08741 0.489275 7.03565 0.678809 7.00376L6.40878 6.13719L6.54013 6.11732L6.59717 5.99735L9.16628 0.594229L9.16635 0.594261L9.16886 0.588628C9.29838 0.297952 9.4199 0.25 9.5 0.25C9.5801 0.25 9.70162 0.297952 9.83114 0.588628L9.83107 0.588659L9.83372 0.594229L12.4028 5.99735L12.4599 6.11732L12.5912 6.13719L18.3212 7.00376C18.5107 7.03566 18.6198 7.08741 18.6778 7.13696C18.7259 7.17811 18.75 7.22604 18.75 7.30312C18.75 7.38184 18.7034 7.51186 18.524 7.69872C18.5236 7.69909 18.5233 7.69947 18.5229 7.69985L14.3803 11.9014Z" fill="#FFDF70" stroke="#767676" stroke-width="0.5"/>
</g>
<defs>
<clipPath id="clip0_242_612">
<rect width="19" height="19" fill="white"/>
</clipPath>
</defs>
</svg>
