<svg width="17" height="17" viewBox="0 0 17 17" fill="none" xmlns="http://www.w3.org/2000/svg">
<path fill-rule="evenodd" clip-rule="evenodd" d="M17 8.5C17 13.1941 13.1941 17 8.5 17C3.80587 17 0 13.1941 0 8.5C0 3.80587 3.80587 0 8.5 0C13.1941 0 17 3.80587 17 8.5ZM8.80458 6.27512C7.97796 6.61867 6.32542 7.33054 3.84767 8.41004C3.44533 8.57012 3.23425 8.72667 3.21512 8.87967C3.18254 9.13892 3.50696 9.24092 3.94754 9.37904C4.00775 9.39817 4.07008 9.41729 4.13383 9.43854C4.56804 9.5795 5.15171 9.74454 5.45487 9.75092C5.73042 9.75658 6.03783 9.64325 6.37713 9.41092C8.69196 7.84762 9.88692 7.05783 9.962 7.04083C10.0151 7.02879 10.0888 7.01321 10.1384 7.05783C10.188 7.10175 10.183 7.18533 10.178 7.208C10.1455 7.34471 8.87471 8.52692 8.21596 9.13892C8.01054 9.32946 7.86533 9.46475 7.83558 9.49592C7.769 9.56462 7.701 9.6305 7.63583 9.69354C7.23208 10.0817 6.93033 10.3735 7.65283 10.8495C7.99992 11.0783 8.27758 11.2675 8.55454 11.4559C8.857 11.662 9.15875 11.8674 9.54975 12.1238C9.64892 12.189 9.74383 12.2563 9.83662 12.3222C10.1887 12.5736 10.5053 12.7989 10.8963 12.7635C11.123 12.7422 11.3581 12.529 11.4771 11.8922C11.7583 10.3863 12.3122 7.12512 12.4405 5.78071C12.4483 5.66908 12.4435 5.55694 12.4263 5.44637C12.416 5.35708 12.3725 5.27491 12.3045 5.21617C12.2032 5.13329 12.0459 5.11558 11.9751 5.117C11.6556 5.12267 11.1655 5.29337 8.80458 6.27512V6.27512Z" fill="#141414"/>
</svg>
