<svg width="17" height="17" viewBox="0 0 17 17" fill="none" xmlns="http://www.w3.org/2000/svg">
<path d="M8.50091 2.45004e-08C7.02465 -0.000112044 5.57381 0.384239 4.29123 1.11521C3.00865 1.84618 1.93857 2.89857 1.18633 4.16876C0.434084 5.43895 0.0256265 6.88315 0.00116707 8.35917C-0.0232924 9.83518 0.33709 11.2921 1.04683 12.5865L0.352099 15.0385C0.287289 15.2619 0.283646 15.4986 0.34155 15.7239C0.399454 15.9492 0.516782 16.1549 0.681285 16.3194C0.845788 16.4839 1.05144 16.6012 1.27676 16.6591C1.50208 16.717 1.73881 16.7134 1.96225 16.6486L4.41425 15.9538C5.55057 16.5766 6.81425 16.9314 8.10869 16.991C9.40313 17.0506 10.6941 16.8135 11.8828 16.2978C13.0716 15.7821 14.1267 15.0014 14.9675 14.0155C15.8083 13.0295 16.4126 11.8644 16.7342 10.6092C17.0557 9.35391 17.086 8.04177 16.8227 6.77303C16.5594 5.50429 16.0096 4.31252 15.2151 3.28884C14.4207 2.26515 13.4027 1.43663 12.239 0.86662C11.0753 0.296605 9.79672 0.000179487 8.50091 2.45004e-08V2.45004e-08ZM10.4707 13.7308H10.4625C8.55418 13.7286 6.72475 12.969 5.37613 11.6189C4.0275 10.2688 3.26998 8.43856 3.26998 6.53029C3.27214 5.75136 3.5831 5.00507 4.13467 4.45504C4.68624 3.90502 5.43342 3.59615 6.21238 3.59615C6.4265 3.59662 6.63671 3.65353 6.82182 3.76115C7.00693 3.86877 7.1604 4.02329 7.26674 4.20913L8.22302 5.88461C8.3385 6.08527 8.39792 6.31329 8.39504 6.54479C8.39217 6.77628 8.32711 7.00275 8.20667 7.20048L7.62636 8.17308C7.91815 8.66923 8.33168 9.08274 8.82784 9.37452L9.80047 8.79423C9.9982 8.6738 10.2247 8.60874 10.4562 8.60587C10.6877 8.60299 10.9157 8.6624 11.1164 8.77788L12.7919 9.73413C12.9778 9.84047 13.1323 9.99393 13.2399 10.179C13.3475 10.3641 13.4044 10.5743 13.4049 10.7885C13.4049 11.5674 13.096 12.3145 12.546 12.8661C11.996 13.4177 11.2496 13.7286 10.4707 13.7308V13.7308Z" fill="#141414"/>
<path d="M9.1957 10.6822C9.10476 10.7354 9.00244 10.7661 8.89724 10.7718C8.79205 10.7775 8.68701 10.758 8.59087 10.7149C7.56309 10.2594 6.74152 9.43783 6.28599 8.41009C6.24293 8.31395 6.22343 8.20892 6.22911 8.10373C6.2348 7.99854 6.26551 7.89622 6.31868 7.80528L7.08698 6.53028L6.16339 4.90384C5.73914 4.9145 5.33586 5.09055 5.03962 5.39442C4.74337 5.69829 4.57763 6.10591 4.57776 6.53028C4.57669 7.30375 4.72811 8.06984 5.02337 8.78474C5.31863 9.49963 5.75193 10.1493 6.29849 10.6966C6.84505 11.2439 7.49415 11.6781 8.20866 11.9743C8.92317 12.2706 9.68907 12.4231 10.4626 12.4231H10.4707C10.8951 12.4232 11.3028 12.2575 11.6066 11.9612C11.9105 11.665 12.0866 11.2617 12.0972 10.8375L10.4707 9.91393L9.1957 10.6822Z" fill="#141414"/>
</svg>
