<svg width="1247" height="1247" viewBox="0 0 1247 1247" fill="none" xmlns="http://www.w3.org/2000/svg">
<path d="M346.666 952.708C281.183 952.708 218.381 926.696 172.077 880.392C125.773 834.088 99.76 771.284 99.76 705.802C99.76 640.32 125.773 577.516 172.077 531.212C218.381 484.909 281.183 458.896 346.666 458.896V705.802V952.708Z" fill="#EE4D30"/>
<path d="M900.334 952.708C965.816 952.708 1028.62 926.696 1074.92 880.392C1121.23 834.088 1147.24 771.284 1147.24 705.802C1147.24 640.32 1121.23 577.516 1074.92 531.212C1028.62 484.909 965.816 458.896 900.334 458.896V705.802V952.708Z" fill="#EE4D30"/>
<path d="M259.376 498.8C259.376 17.2896 992.612 -3.87455 992.612 498.8" stroke="#CF3B21" stroke-width="18"/>
<path d="M618.512 1129.78L957.013 1050.4V902.828" stroke="#CF3B21" stroke-width="15" stroke-linecap="round"/>
<path d="M771.988 1028.78L598.589 1061.28C565.515 1067.47 543.729 1099.31 549.928 1132.38C556.126 1165.46 587.963 1187.24 621.036 1181.05L794.436 1148.55C827.509 1142.35 849.295 1110.51 843.097 1077.44C836.898 1044.36 805.061 1022.58 771.988 1028.78Z" fill="#EE4D30"/>
</svg>
