<svg width="21" height="21" viewBox="0 0 21 21" fill="none" xmlns="http://www.w3.org/2000/svg">
<path d="M11.9225 2.1821C8.20995 2.1821 5.20233 5.19119 5.20233 8.9021C5.20041 10.1246 5.53364 11.3243 6.16581 12.3707L2.90766 15.6288L2.919 15.6402C2.57124 15.973 2.35767 16.4455 2.35767 16.9795C2.35746 18.0113 3.1794 18.8181 4.21008 18.8179C4.73655 18.8177 5.20737 18.607 5.54337 18.2643L5.55156 18.2725L8.91324 14.9106C9.84703 15.3795 10.8776 15.6231 11.9225 15.6221C15.6353 15.6221 18.6423 12.6134 18.6423 8.9021C18.6423 5.19119 15.6351 2.1821 11.9225 2.1821V2.1821ZM11.9633 12.9797C9.64278 12.9797 7.76307 11.0993 7.76307 8.77967C7.76307 6.46043 9.64278 4.57967 11.9633 4.57967C14.2838 4.57967 16.1631 6.46022 16.1631 8.77967C16.1633 11.0993 14.2838 12.9797 11.9633 12.9797Z" fill="#B7B7B7"/>
</svg>
