<svg width="26" height="26" viewBox="0 0 26 26" fill="none" xmlns="http://www.w3.org/2000/svg">
<circle cx="13" cy="13" r="13" fill="#FF9800"/>
<g clip-path="url(#clip0_96_939)">
<path d="M19.8632 6.13688C19.9281 6.20188 19.9724 6.28451 19.9908 6.37451C20.0091 6.46452 20.0006 6.55792 19.9663 6.64313L14.511 20.2809C14.4629 20.401 14.3826 20.5056 14.279 20.583C14.1753 20.6604 14.0523 20.7077 13.9235 20.7197C13.7947 20.7318 13.6651 20.708 13.5489 20.6511C13.4327 20.5942 13.3345 20.5063 13.265 20.3972L10.2857 15.7144L5.60286 12.735C5.49347 12.6656 5.40537 12.5674 5.3483 12.4511C5.29122 12.3348 5.26738 12.205 5.2794 12.076C5.29143 11.947 5.33885 11.8239 5.41644 11.7201C5.49403 11.6164 5.59877 11.5361 5.71911 11.4881L19.3569 6.03469C19.4421 6.00039 19.5355 5.99188 19.6255 6.01021C19.7155 6.02855 19.7982 6.07292 19.8632 6.13782V6.13688ZM11.2213 15.4406L13.8097 19.5075L18.2469 8.415L11.2213 15.4406ZM17.5841 7.75219L6.49161 12.1894L10.5594 14.7769L17.585 7.75219H17.5841Z" fill="#FEFEFE"/>
</g>
<defs>
<clipPath id="clip0_96_939">
<rect width="15" height="15" fill="white" transform="translate(5 6)"/>
</clipPath>
</defs>
</svg>
