<svg width="586" height="460" viewBox="0 0 586 460" fill="none" xmlns="http://www.w3.org/2000/svg">
<path d="M533.413 419.932C522.18 431.957 509.308 442.339 495.177 450.774C494.853 450.973 494.524 451.16 494.193 451.354L471.317 431.11C471.557 430.887 471.823 430.636 472.11 430.361C489.155 414.179 573.775 301.034 579.413 273.482C579.024 275.777 584.501 365.794 533.413 419.932Z" fill="#C51717"/>
<path d="M499.591 454.68C499.159 454.783 498.719 454.88 498.277 454.968L481.115 439.781C481.45 439.664 481.842 439.525 482.29 439.37C489.654 436.764 511.586 428.894 533.412 419.93C556.864 410.295 580.203 399.407 585.223 392.434C584.146 394.054 550.978 443.192 499.591 454.68Z" fill="#C51717"/>
<path d="M533.096 120.473H530.652V53.5304C530.652 48.4424 529.65 43.4042 527.702 38.7035C525.755 34.0028 522.9 29.7317 519.302 26.1339C515.704 22.5362 511.432 19.6823 506.73 17.7352C502.029 15.7881 496.99 14.7859 491.901 14.7859H350.049C344.96 14.7859 339.921 15.7881 335.219 17.7352C330.518 19.6822 326.246 22.5361 322.647 26.1339C319.049 29.7316 316.195 34.0027 314.247 38.7034C312.3 43.4041 311.297 48.4423 311.297 53.5303V420.781C311.297 425.869 312.3 430.907 314.247 435.608C316.195 440.309 319.049 444.58 322.647 448.178C326.246 451.775 330.518 454.629 335.219 456.576C339.921 458.523 344.96 459.526 350.049 459.526H491.9C496.989 459.526 502.028 458.523 506.73 456.576C511.432 454.629 515.703 451.775 519.302 448.178C522.9 444.58 525.755 440.309 527.702 435.608C529.65 430.907 530.652 425.869 530.652 420.781V168.123H533.096V120.473Z" fill="#3F3D56"/>
<path d="M522.403 53.7965V420.513C522.403 424.313 521.654 428.075 520.2 431.586C518.745 435.096 516.613 438.285 513.925 440.972C511.237 443.658 508.046 445.789 504.535 447.242C501.023 448.695 497.26 449.442 493.459 449.441H350.925C347.125 449.441 343.363 448.693 339.852 447.239C336.342 445.786 333.152 443.655 330.465 440.969C327.778 438.282 325.647 435.093 324.193 431.583C322.739 428.074 321.991 424.312 321.991 420.513V53.7965C321.991 49.9975 322.739 46.2357 324.193 42.7259C325.647 39.2161 327.778 36.027 330.465 33.3407C333.152 30.6544 336.342 28.5236 339.852 27.07C343.363 25.6163 347.125 24.8683 350.925 24.8686H368.222C367.373 26.9559 367.05 29.2199 367.281 31.4614C367.513 33.7029 368.291 35.8531 369.549 37.7231C370.806 39.5931 372.504 41.1255 374.493 42.1856C376.482 43.2456 378.701 43.8008 380.955 43.8023H462.218C464.473 43.8044 466.694 43.2516 468.685 42.1925C470.676 41.1335 472.375 39.6009 473.634 37.7298C474.892 35.8587 475.67 33.7068 475.9 31.4638C476.13 29.2208 475.804 26.9558 474.951 24.8686H493.459C497.26 24.8672 501.023 25.6144 504.535 27.0676C508.046 28.5207 511.237 30.6513 513.925 33.3377C516.613 36.024 518.745 39.2135 520.2 42.7238C521.654 46.2342 522.403 49.9968 522.403 53.7965V53.7965Z" fill="white"/>
<path d="M478.066 244.362H352.782C350.587 244.36 348.484 243.487 346.932 241.935C345.38 240.384 344.507 238.281 344.505 236.087V231.968C344.507 229.774 345.38 227.67 346.932 226.119C348.484 224.567 350.587 223.695 352.782 223.692H478.066C480.26 223.695 482.364 224.567 483.915 226.119C485.467 227.67 486.34 229.774 486.342 231.968V236.087C486.34 238.281 485.467 240.384 483.915 241.935C482.364 243.487 480.26 244.36 478.066 244.362Z" fill="#C51717"/>
<path d="M478.066 279.869H352.782C350.587 279.867 348.484 278.994 346.932 277.443C345.38 275.891 344.507 273.788 344.505 271.594V267.475C344.507 265.281 345.38 263.177 346.932 261.626C348.484 260.075 350.587 259.202 352.782 259.199H478.066C480.26 259.202 482.364 260.075 483.915 261.626C485.467 263.177 486.34 265.281 486.342 267.475V271.594C486.34 273.788 485.467 275.891 483.915 277.443C482.364 278.994 480.26 279.867 478.066 279.869V279.869Z" fill="#C51717"/>
<path d="M484.333 236.421H359.049C356.745 236.418 354.536 235.502 352.906 233.873C351.277 232.244 350.361 230.035 350.358 227.732V223.613C350.361 221.309 351.277 219.1 352.906 217.471C354.536 215.842 356.745 214.926 359.049 214.923H484.333C486.637 214.926 488.846 215.842 490.475 217.471C492.104 219.1 493.021 221.309 493.023 223.613V227.732C493.021 230.035 492.104 232.244 490.475 233.873C488.846 235.502 486.637 236.418 484.333 236.421V236.421ZM359.049 216.579C357.184 216.581 355.395 217.322 354.076 218.641C352.757 219.96 352.016 221.748 352.014 223.613V227.732C352.016 229.597 352.757 231.384 354.076 232.703C355.395 234.022 357.184 234.764 359.049 234.766H484.333C486.198 234.764 487.986 234.022 489.305 232.703C490.624 231.384 491.366 229.597 491.368 227.732V223.613C491.366 221.748 490.624 219.96 489.305 218.641C487.986 217.322 486.198 216.581 484.333 216.579H359.049Z" fill="#3F3D56"/>
<path d="M484.333 271.928H359.049C356.745 271.925 354.536 271.009 352.906 269.38C351.277 267.751 350.361 265.543 350.358 263.239V259.12C350.361 256.816 351.277 254.608 352.906 252.979C354.536 251.35 356.745 250.433 359.049 250.431H484.333C486.637 250.433 488.846 251.35 490.475 252.979C492.104 254.608 493.021 256.816 493.023 259.12V263.239C493.021 265.543 492.104 267.751 490.475 269.38C488.846 271.009 486.637 271.925 484.333 271.928V271.928ZM359.049 252.086C357.184 252.088 355.395 252.83 354.076 254.148C352.757 255.467 352.016 257.255 352.014 259.12V263.239C352.016 265.104 352.757 266.892 354.076 268.21C355.395 269.529 357.184 270.271 359.049 270.273H484.333C486.198 270.271 487.986 269.529 489.305 268.21C490.624 266.892 491.366 265.104 491.368 263.239V259.12C491.366 257.255 490.624 255.467 489.305 254.148C487.986 252.83 486.198 252.088 484.333 252.086H359.049Z" fill="#3F3D56"/>
<path d="M522.403 53.7965V133.562C509.726 136.897 496.453 137.279 483.606 134.681C470.758 132.082 458.678 126.571 448.294 118.572C437.911 110.573 429.501 100.299 423.712 88.5407C417.923 76.7823 414.909 63.8528 414.901 50.7471C414.901 48.4078 414.996 46.0929 415.184 43.8023H462.218C464.473 43.8044 466.694 43.2516 468.685 42.1925C470.676 41.1335 472.375 39.6009 473.634 37.7298C474.892 35.8587 475.67 33.7068 475.9 31.4638C476.13 29.2208 475.804 26.9558 474.951 24.8686H493.46C497.26 24.8672 501.023 25.6144 504.535 27.0676C508.046 28.5207 511.237 30.6513 513.925 33.3377C516.613 36.024 518.745 39.2135 520.2 42.7238C521.654 46.2342 522.403 49.9968 522.403 53.7965V53.7965Z" fill="#C51717"/>
<path d="M394.011 444.459C394.011 446.141 393.948 447.801 393.813 449.441H350.925C347.125 449.441 343.363 448.693 339.852 447.239C336.342 445.786 333.152 443.655 330.465 440.969C327.778 438.282 325.647 435.093 324.193 431.583C322.739 428.074 321.991 424.312 321.991 420.513V381.288C330.981 380.119 340.117 380.879 348.79 383.518C357.463 386.157 365.474 390.613 372.289 396.591C379.104 402.568 384.566 409.929 388.311 418.184C392.057 426.438 394 435.395 394.011 444.459H394.011Z" fill="#6C63FF"/>
<path d="M48.1061 375.634C49.3112 376.164 50.6774 376.194 51.9049 375.718C53.1324 375.243 54.121 374.299 54.6539 373.096L93.2896 285.548C94.1739 283.544 94.4441 281.323 94.0661 279.166C93.688 277.009 92.6786 275.013 91.1656 273.429C89.6526 271.846 87.704 270.747 85.5661 270.271C83.4282 269.794 81.1971 269.963 79.1549 270.755H79.1548C76.7955 271.655 74.8212 273.346 73.5679 275.538C73.3685 275.885 73.1877 276.242 73.0262 276.608L34.3905 364.156C34.1272 364.753 33.984 365.395 33.9691 366.047C33.9542 366.699 34.0678 367.348 34.3036 367.956C34.5393 368.564 34.8926 369.119 35.3431 369.591C35.7936 370.062 36.3326 370.44 36.9293 370.703L48.1061 375.634Z" fill="#6C63FF"/>
<path d="M91.7034 321.49L53.4878 312.999L62.9465 287.981C64.5579 281.866 68.3079 276.531 73.5163 272.944C78.7247 269.356 85.0466 267.754 91.3353 268.428L91.7035 268.469L91.7034 321.49Z" fill="#2F2E41"/>
<path d="M168.893 376.886C167.769 376.884 166.67 376.557 165.728 375.943C164.786 375.33 164.042 374.457 163.586 373.43L124.95 285.881C123.722 283.096 123.607 279.945 124.631 277.078C125.655 274.211 127.739 271.845 130.454 270.467C133.17 269.089 136.31 268.805 139.229 269.671C142.148 270.538 144.624 272.49 146.147 275.126V275.125C146.361 275.498 146.555 275.881 146.728 276.274L185.364 363.822C185.984 365.228 186.021 366.822 185.465 368.255C184.91 369.687 183.808 370.84 182.402 371.461L170.846 376.558L170.841 376.545C170.216 376.77 169.557 376.886 168.893 376.886V376.886Z" fill="#6C63FF"/>
<path d="M115.45 346.822C114.133 346.824 112.871 347.347 111.94 348.278C111.009 349.209 110.485 350.471 110.484 351.788V453.586C110.485 454.903 111.009 456.165 111.94 457.096C112.871 458.026 114.133 458.55 115.45 458.551H127.666C128.983 458.55 130.245 458.026 131.176 457.096C132.107 456.165 132.631 454.903 132.632 453.586V351.788C132.631 350.471 132.107 349.209 131.176 348.278C130.245 347.347 128.983 346.824 127.666 346.822H115.45Z" fill="#6C63FF"/>
<path d="M91.2878 346.822C89.9711 346.824 88.7088 347.347 87.7778 348.278C86.8468 349.209 86.3231 350.471 86.3217 351.788V453.586C86.3231 454.903 86.8468 456.165 87.7778 457.096C88.7088 458.026 89.9711 458.55 91.2878 458.551H103.504C104.821 458.55 106.083 458.026 107.014 457.096C107.945 456.165 108.469 454.903 108.47 453.586V351.788C108.469 350.471 107.945 349.209 107.014 348.278C106.083 347.347 104.821 346.824 103.504 346.822H91.2878Z" fill="#6C63FF"/>
<path d="M109.112 240.171C132.425 240.171 151.324 221.275 151.324 197.966C151.324 174.658 132.425 155.762 109.112 155.762C85.799 155.762 66.9001 174.658 66.9001 197.966C66.9001 221.275 85.799 240.171 109.112 240.171Z" fill="#6C63FF"/>
<path d="M123.159 215.683C125.896 215.607 129.301 215.512 131.924 213.596C132.706 213.002 133.348 212.244 133.805 211.376C134.263 210.508 134.525 209.551 134.573 208.571C134.621 207.874 134.506 207.176 134.239 206.531C133.972 205.886 133.559 205.311 133.033 204.852C131.663 203.695 129.662 203.423 127.506 204.057L129.74 187.733L128.1 187.508L125.474 206.699L126.843 206.071C128.431 205.342 130.61 204.972 131.965 206.116C132.297 206.415 132.556 206.787 132.722 207.203C132.887 207.618 132.955 208.067 132.919 208.512C132.879 209.242 132.682 209.954 132.342 210.601C132.002 211.247 131.526 211.813 130.948 212.259C128.906 213.75 126.192 213.943 123.113 214.029L123.159 215.683Z" fill="#2F2E41"/>
<path d="M146.766 189.141H137.851V190.796H146.766V189.141Z" fill="#2F2E41"/>
<path d="M118.625 189.141H109.709V190.796H118.625V189.141Z" fill="#2F2E41"/>
<path d="M150.938 377.4L135.745 266.51C135.582 265.321 134.994 264.231 134.089 263.443C133.185 262.654 132.025 262.219 130.824 262.219H119.357C119.404 261.946 119.429 261.669 119.431 261.392V257.254C119.431 255.937 118.908 254.674 117.976 253.743C117.045 252.812 115.782 252.289 114.465 252.289H104.533C103.216 252.289 101.952 252.812 101.021 253.743C100.09 254.674 99.5665 255.937 99.5665 257.254V261.392C99.5682 261.669 99.5931 261.946 99.6409 262.219H88.1729C86.9725 262.219 85.8128 262.654 84.9082 263.443C84.0036 264.232 83.4155 265.321 83.2525 266.51L68.0595 377.4C67.9633 378.103 68.0186 378.817 68.2218 379.497C68.4249 380.176 68.7712 380.804 69.2373 381.338C69.7034 381.872 70.2786 382.3 70.9241 382.594C71.5696 382.887 72.2704 383.039 72.9795 383.039H146.018C146.727 383.039 147.428 382.887 148.073 382.594C148.719 382.3 149.294 381.872 149.76 381.338C150.226 380.804 150.572 380.176 150.776 379.497C150.979 378.817 151.034 378.103 150.938 377.4V377.4Z" fill="#2F2E41"/>
<path d="M127.294 321.49V268.469L127.662 268.428C133.958 267.755 140.287 269.362 145.499 272.958C150.711 276.554 154.46 281.9 156.064 288.024L165.509 312.999L127.294 321.49Z" fill="#2F2E41"/>
<path d="M106.986 241.488L77.7894 230.157C73.0151 228.304 68.2141 226.508 63.4651 224.591C61.4308 223.883 59.5569 222.778 57.9514 221.342C56.5536 219.863 55.601 218.02 55.2026 216.024C54.1899 211.744 54.373 207.066 54.4453 202.698C54.5013 197.921 54.8945 193.153 55.622 188.431C56.897 179.557 59.8913 171.018 64.4371 163.29C72.6251 149.858 86.7325 139.752 102.96 140.559C110.472 140.932 118.028 143.627 123.61 148.763C124.192 149.459 124.846 150.092 125.559 150.652C126.055 150.838 126.595 150.874 127.112 150.756C127.793 150.712 128.475 150.679 129.157 150.656C131.524 150.556 133.896 150.655 136.246 150.953C140.53 151.416 144.59 153.101 147.942 155.808C150.731 158.207 153.001 161.594 153.234 165.358C153.347 167.086 153.061 168.816 152.399 170.416C151.737 172.016 150.716 173.443 149.415 174.586C145.932 177.521 140.962 176.489 136.784 176.268L121.477 175.457L113.721 175.046C112.124 174.962 112.129 177.444 113.721 177.529L134.335 178.621C137.647 178.796 141.061 179.226 144.376 179.027C146.924 178.912 149.356 177.934 151.274 176.253C153.025 174.645 154.329 172.61 155.06 170.347C155.791 168.085 155.922 165.671 155.442 163.343C154.38 158.264 150.599 154.062 146.167 151.563C140.136 148.162 132.934 147.836 126.186 148.339L127.064 148.702C119.431 140.511 107.739 137.053 96.7621 138.263C85.1726 139.541 74.8648 146.005 67.4587 154.845C59.2014 164.7 54.7016 176.989 52.9523 189.626C52.042 196.449 51.7423 203.339 52.0567 210.215C52.0438 213.247 52.5627 216.258 53.5898 219.112C54.7618 221.889 56.8808 224.16 59.57 225.522C62.653 227.01 65.8226 228.312 69.0617 229.42L79.8185 233.595L100.948 241.794L106.326 243.882C107.817 244.46 108.462 242.061 106.986 241.488Z" fill="#2F2E41"/>
<path d="M61.0791 157.122C58.5417 157.122 56.0614 156.37 53.9516 154.96C51.8419 153.551 50.1976 151.548 49.2266 149.204C48.2556 146.86 48.0015 144.281 48.4965 141.793C48.9915 139.305 50.2134 137.019 52.0075 135.225C53.8017 133.431 56.0877 132.21 58.5763 131.715C61.0649 131.22 63.6444 131.474 65.9886 132.445C68.3328 133.416 70.3364 135.06 71.7461 137.169C73.1558 139.278 73.9082 141.758 73.9082 144.295C73.9044 147.696 72.5515 150.956 70.1464 153.361C67.7413 155.766 64.4804 157.118 61.0791 157.122ZM61.0791 133.951C59.0328 133.951 57.0325 134.558 55.3311 135.694C53.6297 136.831 52.3037 138.447 51.5206 140.337C50.7375 142.227 50.5326 144.307 50.9318 146.313C51.3311 148.32 52.3164 150.163 53.7633 151.61C55.2103 153.056 57.0538 154.042 59.0607 154.441C61.0676 154.84 63.1479 154.635 65.0384 153.852C66.9289 153.069 68.5447 151.743 69.6815 150.042C70.8184 148.341 71.4251 146.341 71.4251 144.295C71.4221 141.553 70.331 138.923 68.3915 136.984C66.4519 135.045 63.8221 133.954 61.0791 133.951V133.951Z" fill="#2F2E41"/>
<path d="M275.535 236.611L247.767 215.377L226.53 243.14L254.298 264.374L275.535 236.611Z" fill="#C51717"/>
<path d="M118.603 47.0598C122.991 47.0564 127.318 48.0801 131.238 50.0492C135.159 52.0182 138.564 54.8777 141.18 58.3988L157.394 37.2026L108.744 0L71.5352 48.6417L92.5032 64.6759C94.6016 59.4727 98.2076 55.0155 102.858 51.8765C107.509 48.7376 112.992 47.0602 118.603 47.0598V47.0598Z" fill="#C51717"/>
<path d="M585.172 460H0.827684C0.608168 460 0.397643 459.913 0.242422 459.758C0.0872015 459.602 0 459.392 0 459.172C0 458.953 0.0872015 458.743 0.242422 458.587C0.397643 458.432 0.608168 458.345 0.827684 458.345H585.172C585.392 458.345 585.602 458.432 585.758 458.587C585.913 458.743 586 458.953 586 459.172C586 459.392 585.913 459.602 585.758 459.758C585.602 459.913 585.392 460 585.172 460Z" fill="#3F3D56"/>
<path d="M442.552 322.686H383.073C380.879 322.684 378.775 321.811 377.223 320.26C375.671 318.709 374.799 316.605 374.796 314.411V310.292C374.799 308.098 375.671 305.995 377.223 304.443C378.775 302.892 380.879 302.019 383.073 302.017H442.552C444.746 302.019 446.85 302.892 448.402 304.443C449.954 305.995 450.826 308.098 450.829 310.292V314.411C450.826 316.605 449.954 318.709 448.402 320.26C446.85 321.811 444.746 322.684 442.552 322.686V322.686Z" fill="#6C63FF"/>
<path d="M448.819 314.746H389.34C387.036 314.743 384.827 313.827 383.198 312.198C381.568 310.569 380.652 308.36 380.649 306.057V301.937C380.652 299.634 381.568 297.425 383.198 295.796C384.827 294.167 387.036 293.251 389.34 293.248H448.819C451.123 293.251 453.332 294.167 454.962 295.796C456.591 297.425 457.507 299.634 457.51 301.937V306.057C457.507 308.36 456.591 310.569 454.962 312.198C453.332 313.827 451.123 314.743 448.819 314.746V314.746ZM389.34 294.903C387.475 294.906 385.686 295.647 384.368 296.966C383.049 298.285 382.307 300.073 382.305 301.937V306.057C382.307 307.921 383.049 309.709 384.368 311.028C385.686 312.347 387.475 313.089 389.34 313.091H448.819C450.684 313.089 452.473 312.347 453.792 311.028C455.111 309.709 455.852 307.921 455.855 306.057V301.937C455.852 300.073 455.111 298.285 453.792 296.966C452.473 295.647 450.684 294.906 448.819 294.903H389.34Z" fill="#3F3D56"/>
</svg>
