<svg xmlns="http://www.w3.org/2000/svg" xmlns:xlink="http://www.w3.org/1999/xlink" width="150" height="150" viewBox="0 0 150 150">
  <defs>
    <clipPath id="clip-img_invite">
      <rect width="150" height="150"/>
    </clipPath>
  </defs>
  <g id="img_invite" clip-path="url(#clip-img_invite)">
    <g id="New_Message_Two_Color_1_" data-name="New Message_Two Color(1)" transform="translate(-69.299 -27.48)">
      <path id="Path_1" data-name="Path 1" d="M74.233,94.208s-26.47,67,43.209,67.937S218.981,152.8,219.3,118.725s-24.782-65.918-68.523-66.271S83.379,64.921,74.233,94.208Z" transform="translate(0 -6.386)" fill="#e6e6e6" opacity="0.3"/>
      <rect id="Rectangle_1" data-name="Rectangle 1" width="41.928" height="63.264" transform="matrix(0.98, 0.199, -0.199, 0.98, 130.734, 52.523)" fill="#24272a"/>
      <rect id="Rectangle_2" data-name="Rectangle 2" width="41.928" height="63.264" transform="matrix(0.98, 0.199, -0.199, 0.98, 131.543, 48.547)" fill="#343a40"/>
      <rect id="Rectangle_3" data-name="Rectangle 3" width="35.637" height="45.695" transform="matrix(0.98, 0.199, -0.199, 0.98, 133.682, 53.823)" fill="#74788d"/>
      <path id="Path_2" data-name="Path 2" d="M161.815,124s-10.28,3.381-7.7,9.661c1.4,3.4,6.122,4.809,10.16,5.379a4.114,4.114,0,0,0,4.174-6.057,15.252,15.252,0,0,0-4.234-5.031Z" transform="translate(-38.593 -39.103)" fill="#f4a28c"/>
      <path id="Path_3" data-name="Path 3" d="M218.53,246.344V215.3l31.04-2.773,5.547,33.814Z" transform="translate(-68.235 -79.583)" fill="#fcb92c"/>
      <path id="Path_4" data-name="Path 4" d="M207.91,150.487l7.707,10.855v4.814l27.138-2.426L241.382,150.5s3.322-15.74-.836-26.025a36.11,36.11,0,0,1-2.394-14.958c.2-4.695-6.513-5.77-7.751-1.227a43.872,43.872,0,0,0-.825,9.77,11.4,11.4,0,0,1-1.02,4.814c-1.628,3.664-4.429,10.855-2.768,14.882l-3.175,15.724Z" transform="translate(-63.379 -30.594)" fill="#f4a28c"/>
      <circle id="Ellipse_1" data-name="Ellipse 1" cx="3.202" cy="3.202" r="3.202" transform="translate(137.899 105.044)" fill="#fff" opacity="0.42"/>
      <rect id="Rectangle_5" data-name="Rectangle 5" width="35.013" height="23.93" transform="translate(107.45 55.251)" fill="#fff"/>
      <path id="Path_6" data-name="Path 6" d="M139.59,69.38l17.5,16.815L174.6,69.38Z" transform="translate(-32.14 -14.129)" fill="#4aa3ff" opacity="0.74"/>
      <path id="Path_7" data-name="Path 7" d="M153.728,135.8H186.8V132h-31.86A5.284,5.284,0,0,0,153.728,135.8Z" transform="translate(-38.587 -42.761)" fill="#fff" opacity="0.09"/>
      <path id="Path_8" data-name="Path 8" d="M222.592,191.465l2.746,11.8-9.721.868v-4.814L207.91,188.48Z" transform="translate(-63.379 -68.586)" opacity="0.09"/>
      <path id="Path_10" data-name="Path 10" d="M8.044,0A8.044,8.044,0,1,1,0,8.044,8.044,8.044,0,0,1,8.044,0Z" transform="translate(102.045 48.547)" fill="#ff3d60"/>
      <path id="Path_9" data-name="Path 9" d="M217.857,46.573A2.752,2.752,0,0,1,219.68,46a3,3,0,0,1,1.319.266,1.894,1.894,0,0,1,1.086,1.769,1.818,1.818,0,0,1-.342,1.124,1.661,1.661,0,0,1-.8.64h0a1.759,1.759,0,0,1,.939.7,2.1,2.1,0,0,1,.342,1.243,2.225,2.225,0,0,1-.288,1.129,1.959,1.959,0,0,1-.858.776,3.419,3.419,0,0,1-3.3-.32A2.252,2.252,0,0,1,217,51.55h1.438a1.129,1.129,0,0,0,.353.83,1.286,1.286,0,0,0,.912.309,1.022,1.022,0,0,0,1.124-1.075,1.015,1.015,0,0,0-.4-.906,2.236,2.236,0,0,0-1.248-.277h-.3V49.216h.3c1,0,1.5-.331,1.5-1a.923.923,0,0,0-.266-.706,1.085,1.085,0,0,0-.776-.255,1.037,1.037,0,0,0-.765.271,1.085,1.085,0,0,0-.315.678H217.1A2.138,2.138,0,0,1,217.857,46.573Z" transform="translate(-109.538 6.631)" fill="#fff"/>
    </g>
  </g>
</svg>
