<svg xmlns="http://www.w3.org/2000/svg" xmlns:xlink="http://www.w3.org/1999/xlink" width="128" height="128" viewBox="0 0 128 128">
  <defs>
    <clipPath id="clip-img_wa">
      <rect width="128" height="128"/>
    </clipPath>
  </defs>
  <g id="img_wa" clip-path="url(#clip-img_wa)">
    <rect width="128" height="128" fill="#4caf50"/>
    <g id="whatsapp_2_" data-name="whatsapp(2)" transform="translate(24 24)">
      <path id="Path_3" data-name="Path 3" d="M68.4,11.5A40.473,40.473,0,0,0,40.15,0C9.583,0-9.61,33.116,5.653,59.459L0,80l21.116-5.507c9.2,4.97,16.736,4.53,19.053,4.823,35.443,0,53.086-42.879,28.18-67.689Z" transform="translate(0)" fill="#fff"/>
      <path id="Path_4" data-name="Path 4" d="M35.253,67.916l-.02,0H35.18A33.586,33.586,0,0,1,17.13,62.6l-12.5,3.25L7.98,53.7l-.8-1.25A32.9,32.9,0,0,1,2.13,34.917c0-29.31,35.816-43.966,56.543-23.25C79.349,32.167,64.833,67.916,35.253,67.916Z" transform="translate(4.97 4.586)" fill="#4caf50"/>
      <path id="Path_5" data-name="Path 5" d="M44.411,32.867l-.03.25c-1-.5-5.89-2.89-6.8-3.22-2.043-.757-1.467-.12-5.39,4.373-.583.65-1.163.7-2.153.25a27.053,27.053,0,0,1-8.01-4.95,30.241,30.241,0,0,1-5.533-6.9c-.977-1.687,1.067-1.927,2.927-5.447a1.832,1.832,0,0,0-.083-1.747c-.25-.5-2.24-5.4-3.073-7.353-.8-1.947-1.623-1.7-2.24-1.7-1.92-.167-3.323-.14-4.56,1.147-5.38,5.913-4.023,12.013.58,18.5,9.047,11.84,13.866,14.02,22.68,17.046a13.791,13.791,0,0,0,6.267.4c1.913-.3,5.89-2.4,6.72-4.753.85-2.35.85-4.3.6-4.75s-.9-.7-1.9-1.15Z" transform="translate(13.945 14.822)" fill="#fafafa"/>
    </g>
  </g>
</svg>
