<svg xmlns="http://www.w3.org/2000/svg" xmlns:xlink="http://www.w3.org/1999/xlink" width="128" height="128" viewBox="0 0 128 128">
  <defs>
    <clipPath id="clip-img_payment">
      <rect width="128" height="128"/>
    </clipPath>
  </defs>
  <g id="img_payment" clip-path="url(#clip-img_payment)">
    <rect width="128" height="128" fill="rgba(255,152,0,0.24)"/>
    <g id="wallet_1_" data-name="wallet(1)" transform="translate(24 0.013)">
      <g id="Group_1" data-name="Group 1" transform="translate(0 31.987)">
        <path id="Path_6" data-name="Path 6" d="M77.5,63.778H75V52.425a2.394,2.394,0,0,0-2.5-2.271H70V43.343a2.394,2.394,0,0,0-2.5-2.271H59.045l-4.31-7.829a2.623,2.623,0,0,0-3.355-1.017l-5.76,2.62-.885-1.6a2.621,2.621,0,0,0-3.355-1.013L21.91,41.073H7.5c-4.135,0-7.5,3.056-7.5,6.812V88.753c0,3.755,3.365,6.812,7.5,6.812h65A2.394,2.394,0,0,0,75,93.294V81.942h2.5A2.394,2.394,0,0,0,80,79.671V66.048A2.394,2.394,0,0,0,77.5,63.778ZM65,45.614v4.541h-.955l-2.5-4.541ZM51.38,37.308l7.075,12.847h-4.41l-6.19-11.248Zm-10,0,7.075,12.847H13.09ZM7.5,45.614h4.41L5.2,48.661a2.11,2.11,0,0,1-.2-.777A2.394,2.394,0,0,1,7.5,45.614ZM70,91.024H7.5A2.394,2.394,0,0,1,5,88.753V54.26a8.078,8.078,0,0,0,2.5.436H70v9.082H60c-5.515,0-10,4.073-10,9.082s4.485,9.082,10,9.082H70ZM75,77.4H60a4.562,4.562,0,1,1,0-9.082H75Z" transform="translate(0 -31.987)" fill="#ff9800"/>
      </g>
    </g>
  </g>
</svg>
