<svg xmlns="http://www.w3.org/2000/svg" xmlns:xlink="http://www.w3.org/1999/xlink" width="128" height="128" viewBox="0 0 128 128">
  <defs>
    <linearGradient id="linear-gradient" x1="0.048" y1="0.945" x2="0.936" y2="0.071" gradientUnits="objectBoundingBox">
      <stop offset="0" stop-color="#fd5"/>
      <stop offset="0.523" stop-color="#ff543e"/>
      <stop offset="1" stop-color="#c837ab"/>
    </linearGradient>
    <clipPath id="clip-img_instagram">
      <rect width="128" height="128"/>
    </clipPath>
  </defs>
  <g id="img_instagram" clip-path="url(#clip-img_instagram)">
    <rect width="128" height="128" fill="#fff"/>
    <g id="instagram_3_" data-name="instagram(3)" transform="translate(14.07 14.038)">
      <path id="Path_1" data-name="Path 1" d="M93.407,93.019c7.836-8.137,6.232-16.782,6.232-43.043,0-21.808,3.806-43.67-16.112-48.816-6.22-1.6-61.327-1.6-67.539.008C7.7,3.308.948,10.033.026,21.759-.1,23.4-.1,76.528.03,78.2c.981,12.491,8.671,19.689,18.8,21.147,2.322.336,2.788.436,14.7.457,42.266-.021,51.531,1.861,59.869-6.783Z" transform="translate(0 0)" fill="url(#linear-gradient)"/>
      <path id="Path_2" data-name="Path 2" d="M39.964,3.166c-15.086,0-29.411-1.342-34.883,12.7-2.26,5.8-1.932,13.33-1.932,24.113,0,9.463-.3,18.356,1.932,24.109,5.459,14.048,19.9,12.7,34.875,12.7,14.446,0,29.34,1.5,34.879-12.7,2.264-5.857,1.932-13.276,1.932-24.109,0-14.381.794-23.665-6.182-30.635C63.521,2.281,53.97,3.166,39.948,3.166ZM36.666,9.8C68.133,9.75,72.138,6.252,69.928,54.84c-.785,17.185-13.873,15.3-29.96,15.3-29.332,0-30.176-.839-30.176-30.178,0-29.679,2.327-30.145,26.873-30.17Zm22.951,6.11a4.416,4.416,0,1,0,4.416,4.416A4.416,4.416,0,0,0,59.616,15.91ZM39.964,21.073a18.9,18.9,0,1,0,18.9,18.9,18.9,18.9,0,0,0-18.9-18.9Zm0,6.634c16.224,0,16.245,24.541,0,24.541C23.744,52.248,23.72,27.707,39.964,27.707Z" transform="translate(10.105 9.994)" fill="#fff"/>
    </g>
  </g>
</svg>
