<svg xmlns="http://www.w3.org/2000/svg" xmlns:xlink="http://www.w3.org/1999/xlink" width="24" height="24" viewBox="0 0 24 24">
  <defs>
    <clipPath id="clip-ic_money">
      <rect width="24" height="24"/>
    </clipPath>
  </defs>
  <g id="ic_money" clip-path="url(#clip-ic_money)">
    <g id="money_1_" data-name="money(1)" transform="translate(1 -17.272)">
      <path id="Path_1" data-name="Path 1" d="M21,36.272H1a1,1,0,0,1-1-1v-11a1,1,0,0,1,1-1H21a1,1,0,0,1,1,1v11A1,1,0,0,1,21,36.272Z" transform="translate(0 0)" fill="#0e9347"/>
      <path id="Path_2" data-name="Path 2" d="M253.477,232.727a3.346,3.346,0,0,0-2.8,1.45,3.73,3.73,0,0,0-1.7-.45,3.5,3.5,0,0,0-3.45,3h10.45a1.017,1.017,0,0,0,1-.85A3.562,3.562,0,0,0,253.477,232.727Z" transform="translate(-234.977 -200.455)" fill="#0d8944"/>
      <path id="Path_3" data-name="Path 3" d="M41.273,57.546h-16a2.006,2.006,0,0,0-2-2v-7a2.006,2.006,0,0,0,2-2h16a2.006,2.006,0,0,0,2,2v7A2.006,2.006,0,0,0,41.273,57.546Z" transform="translate(-22.273 -22.274)" fill="#3bb54a"/>
      <g id="Group_1" data-name="Group 1" transform="translate(4 25.272)">
        <ellipse id="Ellipse_1" data-name="Ellipse 1" cx="4" cy="4.5" rx="4" ry="4.5" transform="translate(3)" fill="#0e9347"/>
        <circle id="Ellipse_2" data-name="Ellipse 2" cx="1" cy="1" r="1" transform="translate(0 3.5)" fill="#0e9347"/>
        <circle id="Ellipse_3" data-name="Ellipse 3" cx="1" cy="1" r="1" transform="translate(12 3.5)" fill="#0e9347"/>
      </g>
    </g>
  </g>
</svg>
